<svg id="pin" xmlns="http://www.w3.org/2000/svg" width="52.471" height="70.009" viewBox="0 0 52.471 70.009">
  <path id="Path_1565" data-name="Path 1565" d="M114.383,15.661a26.257,26.257,0,0,0-50.251,10.8c.084,9.661,5.611,16.728,11.463,24.209,3.971,5.077,8.077,10.326,10.86,16.79a4.274,4.274,0,0,0,7.827-.007c2.783-6.461,6.887-11.708,10.857-16.784,5.9-7.537,11.464-14.656,11.464-24.431a26.043,26.043,0,0,0-2.219-10.575ZM103.523,49.4c-4.05,5.178-8.237,10.531-11.125,17.236a2.224,2.224,0,0,1-4.06.007C85.45,59.939,81.261,54.583,77.21,49.4c-5.631-7.2-10.95-14-11.027-22.963A24.332,24.332,0,0,1,88.9,2.1q.746-.044,1.485-.044a24.165,24.165,0,0,1,24.169,24.185c0,9.068-5.357,15.916-11.028,23.167Z" transform="translate(-64.131 0)" fill="#009394"/>
  <path id="Path_1566" data-name="Path 1566" d="M194.747,114.388a2.09,2.09,0,0,0-2.018-1.466H187.1l-1.738-5.35a2.122,2.122,0,0,0-4.035,0l-1.738,5.35h-5.626a2.122,2.122,0,0,0-1.247,3.838l4.551,3.307-1.738,5.35a2.122,2.122,0,0,0,3.265,2.372l4.551-3.307,4.551,3.307a2.09,2.09,0,0,0,2.494,0,2.09,2.09,0,0,0,.771-2.372l-1.738-5.35,4.551-3.307a2.09,2.09,0,0,0,.771-2.372Zm-1.976.713-5.154,3.745a1.025,1.025,0,0,0-.373,1.147l1.969,6.059c.01.029.016.049-.026.079s-.058.018-.083,0l-5.154-3.745a1.025,1.025,0,0,0-1.205,0l-5.154,3.745c-.025.018-.042.03-.083,0s-.035-.049-.026-.079l1.969-6.059a1.025,1.025,0,0,0-.373-1.147l-5.154-3.745c-.025-.018-.041-.03-.026-.079s.036-.049.067-.049h6.371a1.025,1.025,0,0,0,.975-.709l1.969-6.059c.01-.029.016-.049.067-.049s.058.019.067.049l1.969,6.059a1.026,1.026,0,0,0,.975.709h6.371c.031,0,.051,0,.067.049S192.8,115.082,192.771,115.1Z" transform="translate(-157.112 -91.597)" fill="#009394"/>
  <path id="Path_1567" data-name="Path 1567" d="M127.214,63.088A16.52,16.52,0,0,1,149,61.729a1.025,1.025,0,0,0,1.259-1.619,18.547,18.547,0,0,0-26.026,26.026,1.025,1.025,0,1,0,1.619-1.259,16.52,16.52,0,0,1,1.359-21.79Z" transform="translate(-112.655 -48.527)" fill="#009394"/>
  <path id="Path_1568" data-name="Path 1568" d="M194.913,106.018a1.025,1.025,0,0,0-.18,1.439,16.5,16.5,0,0,1-23.148,23.148,1.025,1.025,0,0,0-1.259,1.619A18.547,18.547,0,0,0,196.352,106.2,1.026,1.026,0,0,0,194.913,106.018Z" transform="translate(-155.463 -91.336)" fill="#009394"/>
</svg>
