<svg id="pin" xmlns="http://www.w3.org/2000/svg" width="61.145" height="81.583" viewBox="0 0 61.145 81.583">
  <path id="Path_1565" data-name="Path 1565" d="M122.691,18.25A30.6,30.6,0,0,0,64.132,30.832c.1,11.258,6.538,19.493,13.358,28.211,4.627,5.916,9.412,12.034,12.655,19.566a4.981,4.981,0,0,0,9.121-.008c3.243-7.529,8.026-13.644,12.652-19.558,6.87-8.783,13.359-17.079,13.359-28.469a30.349,30.349,0,0,0-2.585-12.323Zm-12.656,39.32c-4.719,6.034-9.6,12.273-12.964,20.085a2.591,2.591,0,0,1-4.731.008c-3.365-7.816-8.247-14.058-12.968-20.093-6.562-8.389-12.76-16.314-12.85-26.759A28.355,28.355,0,0,1,92.991,2.442q.869-.051,1.73-.051a28.16,28.16,0,0,1,28.165,28.183c0,10.567-6.242,18.547-12.851,27Z" transform="translate(-64.131 0)" fill="#fff"/>
  <path id="Path_1566" data-name="Path 1566" d="M198.534,115.757a2.436,2.436,0,0,0-2.351-1.708h-6.556l-2.026-6.235a2.472,2.472,0,0,0-4.7,0l-2.026,6.235h-6.556a2.472,2.472,0,0,0-1.453,4.473l5.3,3.853-2.026,6.235a2.472,2.472,0,0,0,3.8,2.764l5.3-3.853,5.3,3.853a2.435,2.435,0,0,0,2.906,0,2.436,2.436,0,0,0,.9-2.764l-2.026-6.235,5.3-3.853a2.435,2.435,0,0,0,.9-2.764Zm-2.3.83-6.006,4.364a1.2,1.2,0,0,0-.434,1.336l2.294,7.061c.011.034.018.057-.03.092s-.068.021-.1,0l-6.006-4.364a1.2,1.2,0,0,0-1.4,0l-6.006,4.364c-.029.021-.048.035-.1,0s-.041-.058-.03-.092l2.294-7.061a1.2,1.2,0,0,0-.434-1.336l-6.006-4.364c-.029-.021-.048-.035-.03-.092s.042-.057.078-.057h7.424a1.2,1.2,0,0,0,1.137-.826l2.294-7.061c.011-.034.018-.057.078-.057s.067.023.078.057l2.294,7.061a1.2,1.2,0,0,0,1.137.826h7.424c.036,0,.06,0,.078.057S196.26,116.566,196.231,116.587Z" transform="translate(-154.677 -89.198)" fill="#fff"/>
  <path id="Path_1567" data-name="Path 1567" d="M128.351,64.224a19.251,19.251,0,0,1,25.392-1.583,1.2,1.2,0,0,0,1.467-1.887,21.613,21.613,0,0,0-30.329,30.329,1.195,1.195,0,1,0,1.886-1.467,19.251,19.251,0,0,1,1.584-25.392Z" transform="translate(-111.384 -47.257)" fill="#fff"/>
  <path id="Path_1568" data-name="Path 1568" d="M199.043,106.054a1.2,1.2,0,0,0-.21,1.677,19.223,19.223,0,0,1-26.975,26.975,1.2,1.2,0,0,0-1.467,1.887,21.613,21.613,0,0,0,30.329-30.329A1.2,1.2,0,0,0,199.043,106.054Z" transform="translate(-153.072 -88.944)" fill="#fff"/>
</svg>
